<svg xmlns="http://www.w3.org/2000/svg"  viewBox="0 0 100 100" width="100px" height="100px"><circle cx="50.5" cy="52.5" r="31.5" fill="#fef6aa"/><path d="M50.5,85C32.58,85,18,70.42,18,52.5S32.58,20,50.5,20C68.421,20,83,34.58,83,52.5S68.421,85,50.5,85z M50.5,22 C33.682,22,20,35.682,20,52.5S33.682,83,50.5,83C67.317,83,81,69.318,81,52.5S67.317,22,50.5,22z"/><path fill="#3a83c1" d="M27.679,39.032C25.345,42.98,24,47.582,24,52.5C24,67.136,35.864,79,50.5,79 c5.016,0,9.705-1.394,13.704-3.815C59.957,49.542,40.8,41.503,27.679,39.032z"/><circle cx="50.5" cy="52.5" r="26.5" fill="#3070b7"/><path d="M50.5,80C35.336,80,23,67.664,23,52.5S35.336,25,50.5,25C65.663,25,78,37.336,78,52.5S65.663,80,50.5,80z M50.5,27 C36.439,27,25,38.439,25,52.5S36.439,78,50.5,78S76,66.561,76,52.5S64.561,27,50.5,27z"/><path fill="#40a6dd" d="M47,56c0,0,13,8,10,18h7C64,74,65,62,47,56z"/><path fill="#31c4f3" d="M49,43c0,0,21,17,11,31c0,0,11-13,3-32c0,7-1,11-1,11S60,48,49,43z"/><path fill="#31c4f3" d="M41,33c0,0,17-1,31,14c-9-16-24-19-33-19C40,30,41,33,41,33z"/><polygon fill="#fef6aa" points="44,72 44,18 22,18 28,26 28,75 23,84 72,84 80,72"/><path d="M72,85H23c-0.354,0-0.682-0.188-0.862-0.493c-0.18-0.306-0.185-0.683-0.012-0.993L27,74.741V26.333L21.2,18.6 c-0.228-0.303-0.264-0.708-0.095-1.047S21.621,17,22,17h22c0.552,0,1,0.448,1,1v53h35c0.369,0,0.708,0.203,0.882,0.528 s0.155,0.72-0.05,1.026l-8,12C72.646,84.833,72.334,85,72,85z M24.7,83h46.765l6.667-10H44c-0.552,0-1-0.448-1-1V19H24l4.8,6.4 c0.13,0.173,0.2,0.384,0.2,0.6v49c0,0.17-0.043,0.337-0.126,0.486L24.7,83z"/><polygon fill="#eba272" points="40,75 40,21.532 29.372,21.532 31,24.583 31,76 30,80 69,80 72.027,75"/><path d="M31.5,45c-0.276,0-0.5-0.224-0.5-0.5v-8c0-0.276,0.224-0.5,0.5-0.5s0.5,0.224,0.5,0.5v8C32,44.776,31.776,45,31.5,45z"/><path d="M46.5,76h-6c-0.276,0-0.5-0.224-0.5-0.5V22h-9.648l1.585,2.839C31.978,24.913,32,24.997,32,25.083V33.5 c0,0.276-0.224,0.5-0.5,0.5S31,33.776,31,33.5v-8.288l-1.937-3.469c-0.086-0.155-0.084-0.344,0.005-0.497 C29.159,21.094,29.323,21,29.5,21h11c0.276,0,0.5,0.224,0.5,0.5V75h5.5c0.276,0,0.5,0.224,0.5,0.5S46.776,76,46.5,76z"/><path d="M57.5,76h-8c-0.276,0-0.5-0.224-0.5-0.5s0.224-0.5,0.5-0.5h8c0.276,0,0.5,0.224,0.5,0.5S57.776,76,57.5,76z"/><path d="M68.854,81H29.5c-0.171,0-0.331-0.088-0.422-0.232c-0.092-0.145-0.103-0.327-0.029-0.481L31,76.165V48.5 c0-0.276,0.224-0.5,0.5-0.5s0.5,0.224,0.5,0.5v27.777c0,0.074-0.017,0.147-0.048,0.214L30.29,80h38.289l2.545-4H62.5 c-0.276,0-0.5-0.224-0.5-0.5s0.224-0.5,0.5-0.5h9.535c0.183,0,0.351,0.1,0.438,0.259c0.088,0.16,0.081,0.355-0.017,0.509l-3.182,5 C69.184,80.913,69.024,81,68.854,81z"/><path d="M62.787,70.84c-0.082,0-0.165-0.02-0.242-0.063c-0.241-0.134-0.329-0.438-0.195-0.68c1.838-3.322,2.755-7.093,3.139-9.045 c0.052-0.272,0.313-0.449,0.587-0.395c0.271,0.053,0.447,0.316,0.394,0.587c-0.394,2.01-1.34,5.896-3.244,9.337 C63.134,70.747,62.963,70.84,62.787,70.84z"/><path d="M61.063,38.925c-0.098,0-0.195-0.028-0.281-0.087c-1.568-1.067-3.722-2.067-6.4-2.97c-0.262-0.088-0.402-0.372-0.313-0.633 c0.088-0.262,0.369-0.402,0.634-0.314c2.765,0.932,4.999,1.972,6.643,3.091c0.229,0.155,0.287,0.466,0.132,0.694 C61.38,38.849,61.223,38.925,61.063,38.925z"/><path d="M52.144,35.153c-0.045,0-0.091-0.006-0.136-0.019c-1.9-0.537-3.283-0.812-3.296-0.814 c-0.271-0.054-0.447-0.317-0.393-0.588c0.053-0.271,0.319-0.446,0.587-0.394c0.058,0.012,1.432,0.285,3.374,0.833 c0.266,0.075,0.421,0.352,0.346,0.617C52.563,35.009,52.362,35.153,52.144,35.153z"/><path d="M62.658,70.968c-0.248,0-0.464-0.186-0.495-0.438c-0.73-5.912-7.044-9.909-7.762-10.345 c-0.236-0.144-0.311-0.451-0.167-0.687c0.144-0.236,0.451-0.31,0.687-0.167c0.76,0.462,7.446,4.699,8.234,11.077 c0.034,0.274-0.161,0.524-0.435,0.558C62.699,70.967,62.679,70.968,62.658,70.968z"/><path d="M51.598,58.612c-0.072,0-0.145-0.015-0.214-0.048c-2.292-1.083-4.004-1.579-4.021-1.583 c-0.265-0.076-0.419-0.353-0.343-0.619c0.075-0.265,0.351-0.418,0.618-0.343c0.073,0.021,1.803,0.521,4.174,1.641 c0.249,0.118,0.356,0.416,0.238,0.666C51.965,58.506,51.785,58.612,51.598,58.612z"/><path d="M61.926,53.335c-0.158,0-0.311-0.076-0.405-0.207c-1.894-2.622-5.438-5.925-7.341-7.128 c-0.233-0.147-0.303-0.457-0.155-0.69c0.148-0.234,0.459-0.301,0.69-0.156c1.776,1.123,4.92,3.996,6.962,6.533 c0.354-1.66,0.658-3.76,0.658-6.703c0-0.276,0.224-0.5,0.5-0.5s0.5,0.224,0.5,0.5c0,3.692-0.467,6.101-0.924,7.97 c-0.046,0.189-0.198,0.334-0.39,0.372C61.989,53.332,61.958,53.335,61.926,53.335z"/><g><path d="M51.97,44.611c-0.083,0-0.166-0.02-0.243-0.063c-1.732-0.963-3.051-1.578-3.064-1.583c-0.25-0.116-0.359-0.414-0.243-0.664 c0.116-0.25,0.412-0.36,0.664-0.243c0.055,0.025,1.363,0.634,3.13,1.617c0.241,0.134,0.328,0.438,0.193,0.68 C52.315,44.518,52.145,44.611,51.97,44.611z"/></g></svg>