<svg id="SvgjsSvg1025" width="288" height="288" xmlns="http://www.w3.org/2000/svg" version="1.1" xmlns:xlink="http://www.w3.org/1999/xlink" xmlns:svgjs="http://svgjs.com/svgjs"><defs id="SvgjsDefs1026"></defs><g id="SvgjsG1027" transform="matrix(1,0,0,1,0,0)"><svg xmlns="http://www.w3.org/2000/svg" viewBox="0 0 24 24" width="288" height="288"><path d="M11.29,12l3.54-3.54a1,1,0,0,0,0-1.41,1,1,0,0,0-1.42,0L9.17,11.29a1,1,0,0,0,0,1.42L13.41,17a1,1,0,0,0,.71.29,1,1,0,0,0,.71-.29,1,1,0,0,0,0-1.41Z" fill="#ffffff" class="color000 svgShape"></path></svg></g></svg>