<svg id="SvgjsSvg1030" width="288" height="288" xmlns="http://www.w3.org/2000/svg" version="1.1" xmlns:xlink="http://www.w3.org/1999/xlink" xmlns:svgjs="http://svgjs.com/svgjs"><defs id="SvgjsDefs1031"></defs><g id="SvgjsG1032" transform="matrix(1,0,0,1,0,0)"><svg xmlns="http://www.w3.org/2000/svg" viewBox="0 0 24 24" width="288" height="288"><path d="M14.83,11.29,10.59,7.05a1,1,0,0,0-1.42,0,1,1,0,0,0,0,1.41L12.71,12,9.17,15.54a1,1,0,0,0,0,1.41,1,1,0,0,0,.71.29,1,1,0,0,0,.71-.29l4.24-4.24A1,1,0,0,0,14.83,11.29Z" fill="#ffffff" class="color000 svgShape"></path></svg></g></svg>